<svg version="1.0" xmlns="http://www.w3.org/2000/svg"
 width="512.000000pt" height="512.000000pt" viewBox="0 0 512.000000 512.000000"
 preserveAspectRatio="xMidYMid meet">

<g transform="translate(0.000000,512.000000) scale(0.100000,-0.100000)"
fill="#000000" stroke="none">
<path d="M4468 4295 c-149 -38 -80 26 -1378 -1271 -657 -657 -1200 -1194
-1205 -1194 -6 0 -235 225 -510 501 -307 307 -523 516 -559 540 -171 113 -405
110 -579 -5 -243 -162 -308 -492 -145 -736 51 -75 1460 -1479 1518 -1513 125
-70 300 -93 420 -53 150 50 74 -22 1571 1475 768 768 1411 1417 1428 1443 18
26 44 78 58 115 24 60 27 82 27 183 0 93 -5 126 -22 175 -56 152 -179 274
-328 326 -78 27 -219 34 -296 14z"/>
</g>
</svg>
