<?xml version="1.0" standalone="no"?>
<!DOCTYPE svg PUBLIC "-//W3C//DTD SVG 20010904//EN"
 "http://www.w3.org/TR/2001/REC-SVG-20010904/DTD/svg10.dtd">
<svg version="1.0" xmlns="http://www.w3.org/2000/svg"
 width="512.000000pt" height="512.000000pt" viewBox="0 0 512.000000 512.000000"
 preserveAspectRatio="xMidYMid meet">

<g transform="translate(0.000000,512.000000) scale(0.100000,-0.100000)"
fill="#000000" stroke="none">
<path d="M2459 5106 c-65 -17 -128 -57 -183 -115 -174 -187 -114 -492 119
-603 33 -15 66 -28 73 -28 10 0 12 -20 10 -82 l-3 -82 -689 -121 c-629 -111
-691 -123 -707 -144 -24 -29 -24 -28 6 -195 14 -77 25 -146 25 -153 0 -10 -72
-13 -365 -13 -395 0 -418 -3 -430 -53 -3 -12 -4 -291 -3 -620 3 -585 3 -599
23 -613 35 -26 65 -28 93 -7 l27 20 3 557 2 556 339 0 340 0 10 -52 c6 -29
110 -618 232 -1308 238 -1352 226 -1300 287 -1300 14 0 409 68 879 151 471 82
858 148 861 144 3 -3 6 -135 6 -293 l1 -287 -1477 -3 -1478 -2 0 790 0 791
-25 24 c-13 14 -31 25 -39 25 -28 0 -64 -22 -75 -47 -8 -17 -11 -267 -11 -854
l0 -830 25 -24 c23 -24 29 -25 155 -25 l130 0 0 -130 c0 -126 1 -132 25 -155
l24 -25 1576 0 c1009 0 1583 4 1595 10 10 5 23 24 29 41 14 42 15 405 0 447
-12 35 -56 57 -94 48 -46 -12 -55 -49 -55 -231 l0 -165 -1475 0 -1475 0 0 80
0 80 1375 0 1376 0 24 25 25 24 0 360 0 361 23 5 c12 2 45 8 74 13 l52 9 3
-168 c3 -158 4 -170 25 -190 28 -28 79 -28 107 1 20 19 21 33 24 205 2 102 6
185 10 185 27 0 870 154 884 161 46 25 49 -1 -138 1063 -195 1104 -183 1056
-252 1056 -34 0 -72 -36 -72 -68 0 -12 74 -443 165 -958 91 -515 165 -943 165
-953 0 -14 -209 -53 -1442 -270 -794 -140 -1447 -254 -1452 -255 -7 -1 -503
2758 -518 2883 l-3 24 615 108 c338 60 621 109 628 109 9 0 12 -31 12 -122 0
-79 5 -132 13 -148 24 -48 103 -52 129 -7 8 14 15 76 18 166 l5 144 725 129
c399 70 734 127 745 125 18 -2 25 -34 81 -342 33 -187 64 -347 68 -357 13 -28
60 -42 93 -26 52 25 52 36 -21 455 -38 213 -74 398 -82 410 -7 12 -22 24 -33
28 -11 3 -366 -55 -788 -129 -423 -75 -776 -136 -786 -136 -25 0 -25 118 1
127 120 41 208 113 259 213 26 50 28 64 28 165 0 104 -2 113 -31 170 -34 64
-108 141 -165 170 -82 43 -191 55 -280 31z m60 -201 c61 -97 67 -210 15 -311
-41 -80 -53 -85 -106 -49 -129 91 -129 294 0 376 25 16 50 29 54 29 5 0 21
-20 37 -45z"/>
<path d="M2800 3309 c-492 -87 -905 -161 -918 -164 -13 -3 -30 -20 -38 -39
-14 -29 -15 -37 -3 -62 8 -16 26 -33 40 -38 20 -7 257 32 965 157 847 149 940
167 956 187 24 29 23 61 -3 94 -16 21 -28 26 -62 25 -23 0 -445 -72 -937 -160z"/>
<path d="M2862 3005 c-502 -89 -923 -167 -937 -173 -29 -13 -42 -54 -29 -91
21 -59 -16 -63 969 109 501 88 927 164 947 170 42 12 58 34 58 79 0 34 -40 72
-74 70 -11 -1 -432 -74 -934 -164z"/>
<path d="M2470 2620 c-529 -94 -497 -87 -515 -113 -33 -48 1 -117 58 -117 44
0 936 159 958 171 23 12 39 41 39 69 0 31 -44 70 -77 69 -15 0 -224 -36 -463
-79z"/>
<path d="M3630 2194 c-162 -29 -305 -58 -318 -63 -31 -15 -46 -57 -32 -92 24
-56 29 -56 380 6 177 31 329 59 337 62 42 16 45 99 5 129 -25 19 -49 17 -372
-42z"/>
</g>
</svg>
